<svg viewBox="0 0 787.03 239.09" xmlns="http://www.w3.org/2000/svg" xmlns:xlink="http://www.w3.org/1999/xlink"><linearGradient id="a" gradientUnits="userSpaceOnUse" x1="305.67" x2="387.44" y1="51.77" y2="133.54"><stop offset="0" stop-color="#a0cb46"/><stop offset=".12" stop-color="#8bc047"/><stop offset=".51" stop-color="#4a9e4a"/><stop offset=".8" stop-color="#21884b"/><stop offset=".94" stop-color="#12804c"/></linearGradient><linearGradient id="b" gradientUnits="userSpaceOnUse" x1="381.02" x2="399.82" y1="57.39" y2="33.49"><stop offset=".22" stop-color="#a0cb46"/><stop offset=".95" stop-color="#12804c"/></linearGradient><linearGradient id="c"><stop offset=".18" stop-color="#12804c"/><stop offset=".72" stop-color="#a0cb46"/></linearGradient><linearGradient id="d" gradientUnits="userSpaceOnUse" x1="301.39" x2="384.29" xlink:href="#c" y1="25.16" y2="25.16"/><linearGradient id="e" gradientUnits="userSpaceOnUse" x1="317.32" x2="375.78" y1="98.67" y2="98.67"><stop offset="0" stop-color="#a0cb46"/><stop offset=".94" stop-color="#127f4c"/></linearGradient><linearGradient id="f" x1="331.95" x2="361.15" xlink:href="#e" y1="98.96" y2="98.96"/><linearGradient id="g" gradientUnits="userSpaceOnUse" x1="346.55" x2="367.63" y1="125.53" y2="125.53"><stop offset="0"/><stop offset="1" stop-opacity="0"/></linearGradient><linearGradient id="h" gradientUnits="userSpaceOnUse" x1="374.23" x2="371.73" xlink:href="#c" y1="69.34" y2="67.31"/><linearGradient id="i" gradientUnits="userSpaceOnUse" x1="395.61" x2="400.63" y1="34.98" y2="34.98"><stop offset=".22" stop-color="#a0cb46"/><stop offset=".94" stop-color="#12804c"/></linearGradient><g fill="#5c5c5c"><path d="m197.5 206.78q0 7.13-4.66 10.91t-13.27 3.78h-4.72v17h-7.42v-45.42h13.08q8.51 0 12.75 3.48t4.24 10.25zm-22.65 8.45h4q5.72 0 8.38-2c1.78-1.32 2.68-3.39 2.68-6.21a7 7 0 0 0 -2.4-5.84c-1.59-1.28-4.08-1.92-7.45-1.92h-5.16z"/><path d="m214 220.33v18.14h-7.42v-45.42h12.82q8.79 0 13 3.3t4.22 9.94q0 8.47-8.82 12.08l12.83 20.1h-8.45l-10.87-18.14zm0-6.15h5.16c3.45 0 6-.65 7.51-1.93a7 7 0 0 0 2.33-5.72c0-2.56-.84-4.41-2.51-5.52s-4.21-1.68-7.58-1.68h-4.91z"/><path d="m287.54 215.7q0 11.09-5.54 17.24t-15.7 6.15q-10.29 0-15.8-6.11t-5.5-17.34q0-11.25 5.54-17.28t15.83-6q10.13 0 15.66 6.12t5.51 17.22zm-34.66 0q0 8.38 3.39 12.72t10 4.33q6.61 0 10-4.29t3.37-12.76q0-8.35-3.33-12.68t-10-4.31q-6.67 0-10.08 4.31t-3.35 12.68z"/><path d="m304.66 238.47h-7.36v-45.42h25.62v6.28h-18.26v14.19h17.11v6.31h-17.11z"/><path d="m356.84 238.47h-25.68v-45.42h25.68v6.28h-18.26v12.36h17.11v6.21h-17.11v14.26h18.26z"/><path d="m392.84 226.13a11.44 11.44 0 0 1 -4.38 9.51q-4.38 3.45-12.08 3.45t-12.61-2.39v-7a34.51 34.51 0 0 0 6.6 2.29 28 28 0 0 0 6.51.84q4.41 0 6.5-1.67a5.47 5.47 0 0 0 2.1-4.51 5.65 5.65 0 0 0 -1.92-4.32q-1.94-1.77-8-4.19-6.21-2.52-8.76-5.75a12.18 12.18 0 0 1 -2.54-7.76 10.89 10.89 0 0 1 4-9q4.05-3.25 10.85-3.26a31.8 31.8 0 0 1 13 2.86l-2.36 6.06a28.34 28.34 0 0 0 -10.75-2.52 8.28 8.28 0 0 0 -5.47 1.57 5.15 5.15 0 0 0 -1.86 4.14 5.91 5.91 0 0 0 .74 3 7.7 7.7 0 0 0 2.46 2.38 42 42 0 0 0 6.15 3 33.84 33.84 0 0 1 7.33 3.88 11.52 11.52 0 0 1 3.42 4.07 12.29 12.29 0 0 1 1.07 5.32z"/><path d="m427.82 226.13a11.44 11.44 0 0 1 -4.38 9.51q-4.38 3.45-12.08 3.45t-12.62-2.39v-7a34.85 34.85 0 0 0 6.61 2.29 27.81 27.81 0 0 0 6.5.84q4.41 0 6.51-1.67a5.47 5.47 0 0 0 2.1-4.51 5.66 5.66 0 0 0 -1.93-4.32q-1.92-1.77-7.95-4.19-6.21-2.52-8.76-5.75a12.13 12.13 0 0 1 -2.55-7.76 10.9 10.9 0 0 1 4-9q4-3.25 10.84-3.26a31.73 31.73 0 0 1 13 2.86l-2.36 6.06a28.3 28.3 0 0 0 -10.75-2.52 8.25 8.25 0 0 0 -5.46 1.57 5.16 5.16 0 0 0 -1.87 4.14 5.82 5.82 0 0 0 .75 3 7.66 7.66 0 0 0 2.45 2.38 42 42 0 0 0 6.15 3 33.6 33.6 0 0 1 7.33 3.88 11.32 11.32 0 0 1 3.42 4.07 12.15 12.15 0 0 1 1.05 5.32z"/><path d="m436.61 238.47v-45.42h7.39v45.42z"/><path d="m496.34 215.7q0 11.09-5.54 17.24t-15.71 6.15q-10.27 0-15.79-6.11t-5.51-17.34q0-11.25 5.54-17.28t15.83-6q10.13 0 15.65 6.12t5.53 17.22zm-34.66 0q0 8.38 3.38 12.72t10 4.33c4.42 0 7.74-1.43 10-4.29s3.37-7.11 3.37-12.76-1.11-9.8-3.34-12.68-5.54-4.31-9.95-4.31-7.81 1.44-10.08 4.31-3.38 7.11-3.38 12.68z"/><path d="m543.93 238.47h-9.1l-22.34-36.19h-.25l.16 2q.44 5.77.43 10.56v23.61h-6.74v-45.4h9l22.27 36h.19c0-.47-.12-2.21-.25-5.2s-.19-5.33-.19-7v-23.8h6.81z"/><path d="m584.09 238.47-4.54-12.62h-17.36l-4.44 12.62h-7.83l17-45.6h8.08l17 45.6zm-6.49-19-4.26-12.37c-.31-.82-.74-2.13-1.29-3.91s-.92-3.09-1.13-3.91a71.13 71.13 0 0 1 -2.45 8.35l-4.11 11.84z"/><path d="m598 238.47v-45.42h7.43v39h19.22v6.37z"/></g><path d="m483.67 142.24h-21.9v-53.94q0-7.62-4.6-11.11a16.62 16.62 0 0 0 -10.31-3.49 16 16 0 0 0 -10.16 3.49q-4.44 3.5-4.44 11.11v53.94h-22.21v-49.5q0-21.58 11.26-28.88a49.34 49.34 0 0 1 24.91-7.93 64 64 0 0 1 14.28 1.59 30.1 30.1 0 0 1 12.7 6.34 28.16 28.16 0 0 1 11.26-5.86 63 63 0 0 1 13.54-2.07 47.73 47.73 0 0 1 25.7 7.3q11.75 7.31 11.74 29.51v49.5h-11.1a10.32 10.32 0 0 1 -10.79-10.79v-43.15q0-7.62-4.6-11.11a17 17 0 0 0 -20.63 0q-4.61 3.5-4.6 11.11v53.94z" fill="#449b4a"/><path d="m600.13 116.22h15.87q-3.5 13.34-13.32 20.31-9.84 7.31-24.76 7.3-18.07 0-28.24-11.74-10.15-11.43-10.15-32.69 0-20.3 9.83-31.73 10.15-11.73 28.25-11.74 19 0 29.51 11.42 10.15 11.75 10.14 32.65v3.49a5.44 5.44 0 0 1 -.32 2.22h-54.89q.32 9.84 4.76 14.6 4.11 5.07 12.37 5.07a18 18 0 0 0 9.21-2.22 4.44 4.44 0 0 0 1.74-1.11l1.75-1.74a6.84 6.84 0 0 1 2.38-2.54 9.43 9.43 0 0 1 5.87-1.55zm-38.08-24.75h32.36q-.63-8.56-4.44-12.69-4.12-4.44-11.74-4.45a15.47 15.47 0 0 0 -11.42 4.45q-4.45 4.44-4.76 12.69z" fill="#449b4a"/><path d="m658.2 142.24a164.43 164.43 0 0 1 -22.69-.32q-12.22-.94-12.22-15.54v-93.3h11.43a10 10 0 0 1 7.28 3.17 10.39 10.39 0 0 1 3.18 7.62v14.28h13v4.44a10.24 10.24 0 0 1 -3.18 7.78 10.64 10.64 0 0 1 -7.61 3h-2.22v47c0 3.6 2.11 5.39 6.34 5.39h6.67z" fill="#449b4a"/><path d="m718.81 116.22h15.86q-3.49 13.34-13.32 20.31-9.84 7.31-24.76 7.3-18.08 0-28.24-11.74-10.15-11.43-10.15-32.69 0-20.3 9.83-31.73 10.15-11.73 28.25-11.74 19 0 29.51 11.42 10.16 11.75 10.15 32.65v3.49a5.66 5.66 0 0 1 -.31 2.22h-54.9q.32 9.84 4.76 14.6 4.11 5.07 12.37 5.07a18 18 0 0 0 9.21-2.22 4.44 4.44 0 0 0 1.74-1.11l1.75-1.74a6.75 6.75 0 0 1 2.38-2.54 9.43 9.43 0 0 1 5.87-1.55zm-38.08-24.75h32.36q-.63-8.56-4.44-12.69-4.12-4.44-11.74-4.45a15.47 15.47 0 0 0 -11.42 4.45q-4.49 4.44-4.76 12.69z" fill="#449b4a"/><path d="m739.43 142.24v-40.93q0-12.37 3.65-20.79a34.31 34.31 0 0 1 10-13.48 39.2 39.2 0 0 1 14.12-7 63.08 63.08 0 0 1 16.66-2.22h3.14v22.54h-7.3q-9.21 0-13.64 4.45t-4.44 14v43.47z" fill="#449b4a"/><path d="m60.61 116.22h15.87q-3.48 13.34-13.33 20.31-9.84 7.31-24.75 7.3-18.09 0-28.25-11.74-10.15-11.43-10.15-32.69 0-20.3 9.84-31.73 10.16-11.73 28.24-11.74 19 0 29.51 11.42a43.45 43.45 0 0 1 8.25 16.19h-22.21a18.42 18.42 0 0 0 -3.18-4.76q-4.12-4.44-11.74-4.45a15.47 15.47 0 0 0 -11.42 4.45q-5.71 6.34-5.71 20.94t5.71 20.63q4.13 5.07 12.38 5.07a18 18 0 0 0 9.2-2.22 4.44 4.44 0 0 0 1.74-1.11l1.75-1.74a13.71 13.71 0 0 1 2.54-2.54q1.91-1.59 5.71-1.59z" fill="#449b4a"/><path d="m80 142.24v-40.93q0-12.37 3.65-20.79a34.29 34.29 0 0 1 9.96-13.52 39.36 39.36 0 0 1 14.12-7 63.13 63.13 0 0 1 16.66-2.22h3.18v22.58h-7.3q-9.21 0-13.65 4.45t-4.44 14v43.47z" fill="#449b4a"/><path d="m140.26 134.63a31.38 31.38 0 0 1 -9.52-15.39 70.66 70.66 0 0 1 -2.86-20.15 64 64 0 0 1 2.38-17.09 35.37 35.37 0 0 1 7.46-14.28 33 33 0 0 1 21.28-11.32q13-1.74 23.48 2.07a32.33 32.33 0 0 1 17.75 16.53q5.4 10.47 5.4 24.43a60.77 60.77 0 0 1 -2.22 17.46 44.87 44.87 0 0 1 -5.72 12.37q-7.6 10.47-19.35 13a43.18 43.18 0 0 1 -21.1.48q-10.65-2.41-16.98-8.11zm15.23-55.85q-6.66 7.31-6 21.73t5.4 20.15c1.26 1.7 3.49 3.13 6.66 4.29a15.13 15.13 0 0 0 9.68.31c3.27-1 6.19-3.33 8.72-7.14s3.92-9.94 4.13-18.4q0-11.43-3.65-17.14t-8.43-7.29a15.41 15.41 0 0 0 -9.52-.16 16.51 16.51 0 0 0 -6.99 3.65z" fill="#449b4a"/><path d="m282.74 142.24h-11.11a10.33 10.33 0 0 1 -10.79-10.79v-43.15q0-7.62-4.6-11.11a16.62 16.62 0 0 0 -10.31-3.49 16 16 0 0 0 -10.16 3.49q-4.44 3.5-4.44 11.11v53.94h-22.21v-49.5q0-21.58 11.26-28.88a49.31 49.31 0 0 1 24.91-7.93 47.74 47.74 0 0 1 25.71 7.3q11.73 7.31 11.74 29.51z" fill="#449b4a"/><path d="m346.6 151.63h-14.67a18.74 18.74 0 0 1 -11.7-4.25c-8.33-6.39-14.63-14.53-19.82-23.58-4.39-7.67-8.06-15.69-10-24.42-1.2-5.56-2.07-11.2-1.25-16.88 1.58-11 5.44-21 14.18-28.22 7.85-6.52 16.86-9.17 27-6.48a40.43 40.43 0 0 1 5.5 2.2c7.07 3 14.28 3.36 21.21 0 10.39-5 20.21-4.14 29.71 2 7.54 4.88 12 12.09 14.94 20.48 4 11.35 2.9 22.55-.88 33.59a93.41 93.41 0 0 1 -19.73 33.71 92.39 92.39 0 0 1 -9.4 8.37 15.72 15.72 0 0 1 -10.09 3.39c-5 .05-10 0-15 0z" fill="url(#a)"/><circle cx="346.63" cy="98.67" fill="#fff" r="39.81"/><path d="m396 27.38c-1.86-2-5.34-2.22-8.1-.54s-6.61 5.58-8.65 19.81c-1.2 10.27.54 12.25.54 12.25l17.51-26.12s.6-3.36-1.3-5.4zm10.23 8.28c-2.47-1.25-5.54.24-5.54.24l-20.33 23.89s2.37 1.14 11.92-2.79c13.12-5.8 15.83-10.56 16.7-13.67s-.25-6.43-2.71-7.67z" fill="url(#b)"/><path d="m339.65 20.94c-16.71-12.29-19.59-5.76-38.27-20.94 0 0 5.62 30.05 25.51 42.8 15.49 9.56 22.78 7.28 22.78 7.28a59.37 59.37 0 0 1 -18.22-12.75s16.09 10.48 21.86 10c0 .02 3.04-14.09-13.66-26.39zm22.58 2.65c-9.63 6.9-7.87 14.82-7.87 14.82 3.32.25 12.6-5.62 12.6-5.62a34.55 34.55 0 0 1 -10.5 7.15s4.2 1.28 13.13-4.09c11.46-7.15 14.7-24 14.7-24-10.77 8.5-12.43 4.84-22.06 11.74z" fill="url(#d)"/><path d="m346.55 127.9a29.23 29.23 0 1 1 29.23-29.23 29.26 29.26 0 0 1 -29.23 29.23zm0-49.64a20.41 20.41 0 1 0 20.45 20.41 20.43 20.43 0 0 0 -20.45-20.41z" fill="url(#e)"/><path d="m346.55 113.56a14.6 14.6 0 1 1 14.6-14.56 14.62 14.62 0 0 1 -14.6 14.56zm0-20.38a5.78 5.78 0 1 0 5.78 5.82 5.79 5.79 0 0 0 -5.78-5.82z" fill="url(#f)"/><path d="m349.25 99.43h-2.7l15.31 52.2 3.06-.36a9.54 9.54 0 0 0 2.7-.73z" fill="url(#g)" fill-rule="evenodd"/><path d="m395.74 33.52-49.17 65.57a1.82 1.82 0 0 0 .9 1.8 1.37 1.37 0 0 0 1.8 0l50.61-63.76z" fill="url(#h)" fill-rule="evenodd"/><path d="m399.34 33.49a2.48 2.48 0 0 0 -3.46-.14c-.78.9.2 2.24 1.32 3.22a2.29 2.29 0 0 0 3.06.18c.79-.91.21-2.28-.92-3.26z" fill="url(#i)" fill-rule="evenodd"/></svg>